<?xml version="1.0" encoding="UTF-8"?>
<svg id="Layer_1" data-name="Layer 1" xmlns="http://www.w3.org/2000/svg" xmlns:xlink="http://www.w3.org/1999/xlink" viewBox="0 0 79.43 79.42">
  <defs>
    <style>
      .cls-1 {
        fill: #fff;
      }

      .cls-2 {
        fill: #4285f4;
      }

      .cls-3 {
        clip-path: url(#clippath);
      }
    </style>
    <clipPath id="clippath">
      <circle class="cls-2" cx="39.71" cy="39.71" r="39.71"/>
    </clipPath>
  </defs>
  <circle class="cls-2" cx="39.71" cy="39.71" r="39.71"/>
  <g class="cls-3">
    <g>
      <path class="cls-1" d="M27.71,30.13c1.8,0,3.45,1.04,4.97,2.78,1.28-2.52,2.7-4.86,4.3-6.9-2.57-2.36-5.59-3.76-9.26-3.76-11.96,0-17.07,14.88-22.01,29.28-3.86,11.23-8.23,23.95-14.56,23.95h-3.94v7.89h3.94c11.96,0,17.07-14.88,22.01-29.28,3.86-11.23,8.23-23.95,14.56-23.95Z"/>
      <path class="cls-1" d="M49.73,51.53c-1.14-3.32-2.29-6.67-3.53-9.85-1.61,3.59-3.15,7.83-4.33,11.22,.14,.4,.27,.8,.41,1.19,4.94,14.39,10.06,29.28,22.01,29.28h3.94v-7.89h-3.94c-6.33,0-10.7-12.73-14.56-23.96Z"/>
    </g>
    <path class="cls-1" d="M92.22,83.37h-3.94c-11.96,0-17.07-14.88-22.01-29.28-3.86-11.23-8.23-23.95-14.56-23.95s-10.7,12.73-14.56,23.95c-4.94,14.39-10.06,29.28-22.01,29.28h-3.94v-7.89h3.94c6.33,0,10.7-12.73,14.56-23.95,4.94-14.39,10.06-29.28,22.01-29.28s17.07,14.88,22.01,29.28c3.86,11.23,8.23,23.95,14.56,23.95h3.94v7.89Z"/>
  </g>
</svg>