<?xml version="1.0" encoding="UTF-8"?>
<svg id="Layer_1" data-name="Layer 1" xmlns="http://www.w3.org/2000/svg" viewBox="0 0 239.64 44.2">
  <defs>
    <style>
      .cls-1 {
        fill: #45474c;
      }

      .cls-2 {
        fill: #4285f4;
      }
    </style>
  </defs>
  <g>
    <path class="cls-2" d="M26.11,14.97c-2.67-2.28-6.42-3.42-11.26-3.42-2.51,0-4.99,.32-7.43,.97-2.44,.65-4.52,1.6-6.25,2.86l3.24,6.42c1.18-.9,2.58-1.62,4.21-2.15,1.63-.53,3.29-.79,4.98-.79,2.47,0,4.31,.55,5.51,1.65,1.2,1.1,1.8,2.63,1.8,4.6v.06h-7.25c-3.26,0-5.89,.39-7.9,1.18s-3.47,1.9-4.39,3.33c-.92,1.43-1.38,3.08-1.38,4.92s.48,3.44,1.44,4.89c.96,1.45,2.33,2.6,4.1,3.45,1.77,.84,3.87,1.27,6.31,1.27,2.79,0,5.07-.54,6.84-1.62,1.21-.74,2.13-1.69,2.83-2.84v3.99h8.6V25.64c0-4.83-1.34-8.39-4.01-10.67Zm-7.81,21.98c-1.24,.71-2.64,1.06-4.21,1.06s-2.82-.34-3.74-1.03c-.92-.69-1.38-1.62-1.38-2.8,0-1.06,.4-1.95,1.21-2.65,.8-.71,2.29-1.06,4.45-1.06h6.31v3.24c-.51,1.45-1.38,2.53-2.62,3.24Z"/>
    <path class="cls-2" d="M67.99,19.27c-1.4-2.44-3.28-4.33-5.66-5.69s-5.08-2.03-8.1-2.03c-2.63,0-4.95,.59-6.95,1.77-.94,.56-1.79,1.25-2.53,2.08V0h-9.19V43.73h8.78v-3.64c.8,.97,1.73,1.76,2.8,2.38,2.02,1.16,4.39,1.74,7.1,1.74,3.02,0,5.73-.68,8.1-2.03s4.26-3.25,5.66-5.69c1.39-2.44,2.09-5.3,2.09-8.6s-.7-6.17-2.09-8.6Zm-8.31,13.32c-.73,1.34-1.69,2.35-2.89,3.04-1.2,.69-2.56,1.03-4.1,1.03s-2.91-.34-4.12-1.03c-1.22-.69-2.19-1.7-2.92-3.04-.73-1.33-1.09-2.91-1.09-4.71s.36-3.42,1.09-4.71c.73-1.3,1.7-2.29,2.92-2.98,1.22-.69,2.59-1.03,4.12-1.03s2.9,.34,4.1,1.03c1.2,.69,2.16,1.68,2.89,2.98,.73,1.3,1.09,2.87,1.09,4.71s-.36,3.38-1.09,4.71Z"/>
  </g>
  <g>
    <path class="cls-1" d="M87.9,36.89c-1.18,0-2.11-.37-2.8-1.12-.69-.75-1.03-1.79-1.03-3.12v-12.85h7.84v-7.07h-7.84V5.01h-9.25v7.72h-4.89v7.07h4.89v13.02c0,3.77,1.04,6.61,3.12,8.52,2.08,1.91,4.99,2.86,8.72,2.86,1.42,0,2.78-.17,4.1-.5,1.32-.33,2.43-.83,3.33-1.5l-2.42-6.48c-1.02,.79-2.28,1.18-3.77,1.18Z"/>
    <path class="cls-1" d="M119,13.55c-2.5-1.34-5.29-2-8.4-2s-6.12,.7-8.69,2.09c-2.57,1.4-4.58,3.33-6.01,5.8-1.43,2.48-2.15,5.29-2.15,8.43s.75,5.94,2.24,8.4c1.49,2.46,3.59,4.39,6.31,5.8,2.71,1.42,5.87,2.12,9.49,2.12,2.87,0,5.4-.44,7.6-1.33s4.03-2.15,5.48-3.8l-4.89-5.3c-1.06,1.02-2.23,1.79-3.51,2.3-1.28,.51-2.74,.77-4.39,.77-1.92,0-3.58-.34-4.95-1.03-1.38-.69-2.46-1.68-3.24-2.98-.43-.71-.73-1.5-.93-2.36h23.97c.04-.39,.08-.81,.12-1.27,.04-.45,.06-.85,.06-1.21,0-3.42-.73-6.34-2.18-8.78-1.45-2.44-3.43-4.32-5.92-5.66Zm-12.49,5.98c1.2-.69,2.58-1.03,4.16-1.03s2.95,.34,4.12,1.03,2.1,1.64,2.77,2.86c.44,.81,.71,1.72,.85,2.71h-15.55c.15-.98,.43-1.88,.86-2.68,.67-1.24,1.6-2.2,2.8-2.89Z"/>
    <path class="cls-1" d="M153.81,27.08c-1.16-.65-2.41-1.15-3.74-1.5s-2.69-.63-4.07-.83c-1.38-.2-2.63-.39-3.77-.59-1.14-.2-2.06-.5-2.77-.91-.71-.41-1.06-1.01-1.06-1.8,0-.86,.47-1.57,1.41-2.12,.94-.55,2.48-.83,4.6-.83,1.41,0,2.9,.18,4.45,.53,1.55,.35,3.07,.96,4.57,1.83l3.12-6.54c-1.53-.86-3.41-1.54-5.63-2.03-2.22-.49-4.43-.74-6.63-.74-3.06,0-5.68,.43-7.84,1.3-2.16,.87-3.83,2.07-5.01,3.62s-1.77,3.33-1.77,5.33c0,1.81,.34,3.28,1.03,4.42,.69,1.14,1.61,2.03,2.77,2.68,1.16,.65,2.42,1.15,3.77,1.5s2.72,.63,4.1,.83c1.38,.2,2.62,.39,3.74,.59,1.12,.2,2.02,.48,2.71,.85,.69,.37,1.03,.93,1.03,1.68,0,.9-.44,1.61-1.33,2.12-.88,.51-2.39,.77-4.51,.77-1.93,0-3.88-.28-5.86-.85-1.98-.57-3.72-1.29-5.21-2.15l-3.01,6.54c1.49,.98,3.48,1.8,5.95,2.45,2.47,.65,5.07,.97,7.78,.97,3.18,0,5.88-.43,8.1-1.3,2.22-.86,3.92-2.05,5.1-3.57,1.18-1.51,1.77-3.23,1.77-5.16,0-1.81-.34-3.28-1.03-4.42-.69-1.14-1.61-2.03-2.77-2.68Z"/>
    <path class="cls-1" d="M176.98,36.89c-1.18,0-2.11-.37-2.8-1.12-.69-.75-1.03-1.79-1.03-3.12v-12.85h7.84v-7.07h-7.84V5.01h-9.25v7.72h-4.89v7.07h4.89v13.02c0,3.77,1.04,6.61,3.12,8.52,2.08,1.91,4.99,2.86,8.72,2.86,1.42,0,2.78-.17,4.1-.5,1.32-.33,2.43-.83,3.33-1.5l-2.42-6.48c-1.02,.79-2.28,1.18-3.77,1.18Z"/>
    <path class="cls-1" d="M208.08,13.55c-2.5-1.34-5.29-2-8.4-2s-6.12,.7-8.69,2.09c-2.57,1.4-4.58,3.33-6.01,5.8-1.43,2.48-2.15,5.29-2.15,8.43s.75,5.94,2.24,8.4c1.49,2.46,3.59,4.39,6.31,5.8,2.71,1.42,5.87,2.12,9.49,2.12,2.87,0,5.4-.44,7.6-1.33s4.03-2.15,5.48-3.8l-4.89-5.3c-1.06,1.02-2.23,1.79-3.51,2.3-1.28,.51-2.74,.77-4.39,.77-1.92,0-3.58-.34-4.95-1.03-1.38-.69-2.46-1.68-3.24-2.98-.43-.71-.73-1.5-.93-2.36h23.97c.04-.39,.08-.81,.12-1.27,.04-.45,.06-.85,.06-1.21,0-3.42-.73-6.34-2.18-8.78-1.45-2.44-3.43-4.32-5.92-5.66Zm-12.49,5.98c1.2-.69,2.58-1.03,4.16-1.03s2.95,.34,4.12,1.03,2.1,1.64,2.77,2.86c.44,.81,.71,1.72,.85,2.71h-15.55c.15-.98,.43-1.88,.86-2.68,.67-1.24,1.6-2.2,2.8-2.89Z"/>
    <path class="cls-1" d="M238.61,19.92c.33,.04,.68,.1,1.03,.18V11.55c-2.99,0-5.52,.58-7.6,1.74-1.35,.75-2.43,1.75-3.3,2.95v-4.22h-8.78v31.71h9.19v-14.97c0-3.03,.77-5.26,2.3-6.72,1.53-1.45,3.59-2.18,6.19-2.18,.31,0,.64,.02,.97,.06Z"/>
  </g>
</svg>